<svg xmlns="http://www.w3.org/2000/svg" viewBox="0 0 480 270"><rect width="480" height="270" rx="16" fill="#1b231d"/><g transform="translate(0 0)"><polyline points="20,239 209,239" fill="none" stroke="#344036" stroke-width="2" stroke-linecap="round" stroke-linejoin="round"/><polyline points="132,190 162,203 192,230" fill="none" stroke="#65765f" stroke-width="13" stroke-linecap="round" stroke-linejoin="round"/><polyline points="192,230 204,231" fill="none" stroke="#d1d9c9" stroke-width="7" stroke-linecap="round" stroke-linejoin="round"/><polyline points="138,194 172,213 202,232" fill="none" stroke="#8d9c89" stroke-width="13" stroke-linecap="round" stroke-linejoin="round"/><polyline points="202,232 214,233" fill="none" stroke="#d1d9c9" stroke-width="7" stroke-linecap="round" stroke-linejoin="round"/><path d="M63,174 Q77,165 91,174 L144,190 Q133,197 122,190 Z" fill="#a9c98a"/><polyline points="77,172 56,170" fill="none" stroke="#aebba5" stroke-width="10" stroke-linecap="round" stroke-linejoin="round"/><polyline points="77,174 66,226 34,226" fill="none" stroke="#a5b59b" stroke-width="9" stroke-linecap="round" stroke-linejoin="round"/><circle cx="34" cy="226" r="5" fill="#dce5d4"/><polyline points="85,179 83,232 48,232" fill="none" stroke="#d0dcc5" stroke-width="9" stroke-linecap="round" stroke-linejoin="round"/><circle cx="48" cy="232" r="5" fill="#dce5d4"/><circle cx="56" cy="160" r="13" fill="#d5dfcb"/><path d="M44,157 Q46,141 63,148 L67,155" fill="#677b5e"/><circle cx="64" cy="160" r="1.4" fill="#35432d"/><polyline points="123,190 143,190" fill="none" stroke="#5e7253" stroke-width="10" stroke-linecap="round" stroke-linejoin="round"/></g><g transform="translate(260 0)"><polyline points="20,239 209,239" fill="none" stroke="#344036" stroke-width="2" stroke-linecap="round" stroke-linejoin="round"/><polyline points="132,190 162,203 192,230" fill="none" stroke="#65765f" stroke-width="13" stroke-linecap="round" stroke-linejoin="round"/><polyline points="192,230 204,231" fill="none" stroke="#d1d9c9" stroke-width="7" stroke-linecap="round" stroke-linejoin="round"/><polyline points="138,194 172,213 202,232" fill="none" stroke="#8d9c89" stroke-width="13" stroke-linecap="round" stroke-linejoin="round"/><polyline points="202,232 214,233" fill="none" stroke="#d1d9c9" stroke-width="7" stroke-linecap="round" stroke-linejoin="round"/><path d="M63,174 Q77,165 91,174 L144,190 Q133,197 122,190 Z" fill="#a9c98a"/><polyline points="77,172 56,170" fill="none" stroke="#aebba5" stroke-width="10" stroke-linecap="round" stroke-linejoin="round"/><polyline points="77,174 66,226 34,226" fill="none" stroke="#a5b59b" stroke-width="9" stroke-linecap="round" stroke-linejoin="round"/><circle cx="34" cy="226" r="5" fill="#dce5d4"/><polyline points="85,179 83,232 48,232" fill="none" stroke="#d0dcc5" stroke-width="9" stroke-linecap="round" stroke-linejoin="round"/><circle cx="48" cy="232" r="5" fill="#dce5d4"/><circle cx="56" cy="160" r="13" fill="#d5dfcb"/><path d="M44,157 Q46,141 63,148 L67,155" fill="#677b5e"/><circle cx="64" cy="160" r="1.4" fill="#35432d"/><polyline points="123,190 143,190" fill="none" stroke="#5e7253" stroke-width="10" stroke-linecap="round" stroke-linejoin="round"/></g><path d="M229 133h20m-6-6 7 6-7 6" fill="none" stroke="#8ba372" stroke-width="2" stroke-linecap="round" stroke-linejoin="round"/></svg>