<svg xmlns="http://www.w3.org/2000/svg" viewBox="0 0 480 270"><rect width="480" height="270" rx="16" fill="#1b231d"/><g transform="translate(0 0)"><polyline points="20,239 209,239" fill="none" stroke="#344036" stroke-width="2" stroke-linecap="round" stroke-linejoin="round"/><polyline points="178,234 178,31" fill="none" stroke="#667466" stroke-width="6" stroke-linecap="round" stroke-linejoin="round"/><polyline points="178,31 108,31" fill="none" stroke="#667466" stroke-width="6" stroke-linecap="round" stroke-linejoin="round"/><circle cx="108" cy="35" r="6" fill="#74846e"/><rect x="160" y="150" width="30" height="70" rx="4" fill="#3b493e"/><polyline points="164,162 186,162" fill="none" stroke="#7b8b6e" stroke-width="2" stroke-linecap="round" stroke-linejoin="round"/><polyline points="164,172 186,172" fill="none" stroke="#7b8b6e" stroke-width="2" stroke-linecap="round" stroke-linejoin="round"/><polyline points="164,182 186,182" fill="none" stroke="#7b8b6e" stroke-width="2" stroke-linecap="round" stroke-linejoin="round"/><polyline points="164,192 186,192" fill="none" stroke="#7b8b6e" stroke-width="2" stroke-linecap="round" stroke-linejoin="round"/><polyline points="164,202 186,202" fill="none" stroke="#7b8b6e" stroke-width="2" stroke-linecap="round" stroke-linejoin="round"/><rect x="80" y="153" width="64" height="9" rx="4" fill="#3b493e"/><polyline points="110,162 110,232" fill="none" stroke="#667466" stroke-width="6" stroke-linecap="round" stroke-linejoin="round"/><polyline points="82,233 143,233" fill="none" stroke="#667466" stroke-width="6" stroke-linecap="round" stroke-linejoin="round"/><rect x="100" y="171" width="46" height="8" rx="4" fill="#3b493e"/><polyline points="104,153 142,177 141,226" fill="none" stroke="#65765f" stroke-width="13" stroke-linecap="round" stroke-linejoin="round"/><polyline points="141,226 153,227" fill="none" stroke="#d1d9c9" stroke-width="7" stroke-linecap="round" stroke-linejoin="round"/><polyline points="116,153 158,177 163,226" fill="none" stroke="#8d9c89" stroke-width="13" stroke-linecap="round" stroke-linejoin="round"/><polyline points="163,226 175,227" fill="none" stroke="#d1d9c9" stroke-width="7" stroke-linecap="round" stroke-linejoin="round"/><path d="M96,91 Q110,82 124,91 L121,153 Q110,160 99,153 Z" fill="#a9c98a"/><polyline points="110,89 110,71" fill="none" stroke="#aebba5" stroke-width="10" stroke-linecap="round" stroke-linejoin="round"/><polyline points="95,94 78,62 63,35" fill="none" stroke="#a5b59b" stroke-width="9" stroke-linecap="round" stroke-linejoin="round"/><circle cx="63" cy="35" r="5" fill="#dce5d4"/><polyline points="125,94 142,62 157,35" fill="none" stroke="#d0dcc5" stroke-width="9" stroke-linecap="round" stroke-linejoin="round"/><circle cx="157" cy="35" r="5" fill="#dce5d4"/><circle cx="110" cy="61" r="13" fill="#d5dfcb"/><path d="M98,58 Q100,42 117,49 L121,56" fill="#677b5e"/><polyline points="100,153 120,153" fill="none" stroke="#5e7253" stroke-width="10" stroke-linecap="round" stroke-linejoin="round"/><polyline points="108,35 110,35" fill="none" stroke="#9dab94" stroke-width="2" stroke-linecap="round" stroke-linejoin="round"/><polyline points="54,42 63,35 110,31 157,35 166,42" fill="none" stroke="#c8f36a" stroke-width="5" stroke-linecap="round" stroke-linejoin="round"/></g><g transform="translate(260 0)"><polyline points="20,239 209,239" fill="none" stroke="#344036" stroke-width="2" stroke-linecap="round" stroke-linejoin="round"/><polyline points="178,234 178,31" fill="none" stroke="#667466" stroke-width="6" stroke-linecap="round" stroke-linejoin="round"/><polyline points="178,31 108,31" fill="none" stroke="#667466" stroke-width="6" stroke-linecap="round" stroke-linejoin="round"/><circle cx="108" cy="35" r="6" fill="#74846e"/><rect x="160" y="150" width="30" height="70" rx="4" fill="#3b493e"/><polyline points="164,162 186,162" fill="none" stroke="#7b8b6e" stroke-width="2" stroke-linecap="round" stroke-linejoin="round"/><polyline points="164,172 186,172" fill="none" stroke="#7b8b6e" stroke-width="2" stroke-linecap="round" stroke-linejoin="round"/><polyline points="164,182 186,182" fill="none" stroke="#7b8b6e" stroke-width="2" stroke-linecap="round" stroke-linejoin="round"/><polyline points="164,192 186,192" fill="none" stroke="#7b8b6e" stroke-width="2" stroke-linecap="round" stroke-linejoin="round"/><polyline points="164,202 186,202" fill="none" stroke="#7b8b6e" stroke-width="2" stroke-linecap="round" stroke-linejoin="round"/><rect x="80" y="153" width="64" height="9" rx="4" fill="#3b493e"/><polyline points="110,162 110,232" fill="none" stroke="#667466" stroke-width="6" stroke-linecap="round" stroke-linejoin="round"/><polyline points="82,233 143,233" fill="none" stroke="#667466" stroke-width="6" stroke-linecap="round" stroke-linejoin="round"/><rect x="100" y="171" width="46" height="8" rx="4" fill="#3b493e"/><polyline points="104,153 142,177 141,226" fill="none" stroke="#65765f" stroke-width="13" stroke-linecap="round" stroke-linejoin="round"/><polyline points="141,226 153,227" fill="none" stroke="#d1d9c9" stroke-width="7" stroke-linecap="round" stroke-linejoin="round"/><polyline points="116,153 158,177 163,226" fill="none" stroke="#8d9c89" stroke-width="13" stroke-linecap="round" stroke-linejoin="round"/><polyline points="163,226 175,227" fill="none" stroke="#d1d9c9" stroke-width="7" stroke-linecap="round" stroke-linejoin="round"/><path d="M96,91 Q110,82 124,91 L121,153 Q110,160 99,153 Z" fill="#a9c98a"/><polyline points="110,89 110,71" fill="none" stroke="#aebba5" stroke-width="10" stroke-linecap="round" stroke-linejoin="round"/><polyline points="95,94 58,128 70,100" fill="none" stroke="#a5b59b" stroke-width="9" stroke-linecap="round" stroke-linejoin="round"/><circle cx="70" cy="100" r="5" fill="#dce5d4"/><polyline points="125,94 162,128 150,100" fill="none" stroke="#d0dcc5" stroke-width="9" stroke-linecap="round" stroke-linejoin="round"/><circle cx="150" cy="100" r="5" fill="#dce5d4"/><circle cx="110" cy="61" r="13" fill="#d5dfcb"/><path d="M98,58 Q100,42 117,49 L121,56" fill="#677b5e"/><polyline points="100,153 120,153" fill="none" stroke="#5e7253" stroke-width="10" stroke-linecap="round" stroke-linejoin="round"/><polyline points="108,35 110,100" fill="none" stroke="#9dab94" stroke-width="2" stroke-linecap="round" stroke-linejoin="round"/><polyline points="61,107 70,100 110,96 150,100 159,107" fill="none" stroke="#c8f36a" stroke-width="5" stroke-linecap="round" stroke-linejoin="round"/></g><path d="M229 133h20m-6-6 7 6-7 6" fill="none" stroke="#8ba372" stroke-width="2" stroke-linecap="round" stroke-linejoin="round"/></svg>